<?xml version="1.0" standalone="no"?>
<!DOCTYPE svg PUBLIC "-//W3C//DTD SVG 1.1//EN" "http://www.w3.org/Graphics/SVG/1.1/DTD/svg11.dtd" >
<svg xmlns="http://www.w3.org/2000/svg">
<metadata>Generated by IcoMoon</metadata>
<defs>
<font id="iconfont-washington" horiz-adv-x="1024">
<font-face units-per-em="1024" ascent="960" descent="-64" />
<missing-glyph horiz-adv-x="1024" />
<glyph unicode="&#x20;" horiz-adv-x="512" d="" />
<glyph unicode="&#xe900;" glyph-name="logo-washington" horiz-adv-x="1380" d="M1236.693 836.295c0 25.828 12.16 38.158 28.274 38.158 14.962 0 23.396-9.444 23.396-30.834v-78.066h31.26v96.37c0 23.524-17.977 39.524-42.325 39.524-23.396 0-35.556-14.848-40.604-22.372v22.172l-31.076-5.788v-129.906h31.090v70.741zM1118.080 763.036c36.565 0 68.267 27.193 68.267 69.433 0 42.226-31.701 69.419-68.267 69.419-36.551 0-68.437-27.193-68.437-69.419 0.014-42.254 31.886-69.433 68.437-69.433zM1118.080 875.079c21.020 0 37.12-16.583 37.12-42.61 0-23.723-15.175-42.624-37.12-42.624-20.608 0-37.106 17.934-37.106 42.624 0 23.31 13.298 42.61 37.106 42.61zM971.548 765.554h31.246v107.776h37.973v26.027h-107.193v-26.027h37.973zM858.325 763.236c29.255 0 65.436 18.702 65.436 69.234v12.146h-69.931v-23.524h39.182c-1.124-16.981-12.373-31.829-34.674-31.829-16.128 0-37.12 13.312-37.12 43.207 0 25.259 16.896 42.425 36.565 42.425 12.558 0 24.363-4.053 33.536-16.199l21.945 15.815c-4.693 7.14-21.177 27.193-54.187 27.193-40.875 0-69.547-32.014-69.547-69.234 0-41.074 28.658-69.234 68.793-69.234zM685.796 836.295c0 25.828 12.16 38.158 28.274 38.158 14.962 0 23.41-9.444 23.41-30.834v-78.066h31.246v96.37c0 23.524-17.977 39.524-42.311 39.524-23.41 0-35.57-14.848-40.619-22.372v22.172l-31.076-5.788v-129.906h31.076v70.741zM609.721 921.728c10.084 0 17.977 8.505 17.977 19.143 0 10.624-7.893 19.129-17.977 19.129s-18.133-8.505-18.133-19.129c0-10.638 8.050-19.143 18.133-19.143zM594.332 899.698h30.976v-134.144h-30.976v134.144zM482.944 820.693h51.1v-55.14h30.507v133.803h-30.507v-54.372h-51.1v54.372h-30.507v-133.803h30.507zM376.704 788.48c-10.638 0-22.599 7.339-29.682 17.934l-22.414-16.768c8.22-14.080 26.908-26.809 53.22-26.809 29.326 0 51.541 18.133 51.541 40.491 0 11.193-1.863 27.008-29.511 36.267-10.439 3.271-25.572 7.125-34.332 10.027-7.481 2.318-11.42 5.006-11.42 11.762 0 4.821 5.234 14.080 21.86 14.080 13.070 0 20.907-3.854 30.45-14.080l20.722 16.583c-11.577 15.815-30.99 23.723-49.308 23.723-24.832 0-51.541-15.047-51.541-42.425 0-16.398 9.899-27.776 23.922-32.782 10.439-4.053 22.215-6.955 33.991-10.61 10.823-3.285 15.673-7.14 15.673-12.928-0.014-7.908-8.021-14.464-23.168-14.464zM271.815 844.217c-59.136 0-81.223-15.815-81.223-44.928 0-21.404 19.285-36.452 41.742-36.452 15.147 0 30.507 6.556 40.434 23.14 0.185-6.172 0.754-14.265 1.308-20.437h31.445c-0.939 12.146-1.692 22.556-1.692 37.988v48.412c0 30.848-18.148 49.365-52.21 49.365-34.816 0-54.457-21.22-57.273-24.292l17.422-19.285c10.112 11.364 24.69 16.967 37.788 16.967 12.359 0 23.026-5.788 23.026-25.074v-5.404h-0.768zM272.569 821.461c0-19.285-10.866-33.934-31.63-33.934-13.867 0-18.901 8.092-18.901 14.848 0 9.259 6.542 20.636 49.223 20.636h1.308v-1.55zM63.019 765.554l26.254 82.716 26.069-82.716h31.9l32.626 133.803h-30.009l-18.958-86.955-25.301 86.955h-28.715l-25.685-88.306-18.375 88.306h-32.825l31.118-133.803zM1291.591-23.068h13.227v-35.868h9.557v35.868h13.241v9.131h-36.025zM1022.976 120.22c-99.228 0-169.116 85.333-169.116 194.603v2.105c0 106.098 69.888 192.484 169.116 192.484 67.84 0 114.418-33.294 154.923-85.333l147.854 117.589c-62.791 89.486-155.932 151.922-300.743 151.922-172.174 0-308.508-107.108-355.74-259.044-44.914 147.442-179.769 244.466-383.474 244.466h-273.408v-728.462h269.355c203.548 0 339.442 99.342 386.091 246.229 46.279-155.847 184.676-260.779 349.084-260.779 156.942 0 247.026 69.732 313.884 164.437l-147.826 108.245c-42.567-53.063-86.116-88.462-160-88.462zM484.252 313.756c0-117.589-77.952-184.178-195.413-184.178h-80v370.475h80c117.461 0 195.413-67.655 195.413-184.178v-2.119zM705.451 287.033l22.457-68.039-57.074 41.529-56.021-42.965 20.722 68.594-57.017 41.458 69.902 0.939 20.764 68.594 22.428-68.068 69.888 0.896-56.050-42.937zM1369.643-13.938l-11.506-19.029-11.463 19.029h-10.368v-44.999h9.415v29.184l12.188-19.029h0.228l12.302 19.228v-29.383h9.557v44.999z" />
<glyph unicode="&#xe901;" glyph-name="caret-up" d="M1024-25.376h-1024l512 946.72 512-946.72z" />
<glyph unicode="&#xe902;" glyph-name="magnifying-glass" d="M1001.103 93.653l-244.944 244.944c36.944 60.604 58.206 131.903 58.206 208.063 0 221.479-191.925 413.339-413.403 413.339-221.484 0.065-400.962-179.478-400.962-400.959 0-221.415 191.923-413.339 413.339-413.339 73.697 0 142.598 20.028 201.906 54.707l246.24-246.373c24.112-24.046 63.197-24.046 87.245 0l61.123 61.123c24.046 24.048 15.298 54.447-8.75 78.494zM123.413 559.041c0 153.357 124.254 277.611 277.547 277.611 153.357 0 289.992-136.571 289.992-289.992 0-153.293-124.32-277.613-277.611-277.613-153.358 0.065-289.928 136.701-289.928 289.993z" />
<glyph unicode="&#xe903;" glyph-name="social-circle-pinterest" d="M512 960c-282.773 0-512-229.227-512-512s229.227-512 512-512c282.773 0 512 229.227 512 512s-229.227 512-512 512zM547.040 326.667c-32.852 2.507-46.613 18.773-72.32 34.347-14.133-74.187-31.413-145.333-82.613-182.507-15.84 112.213 23.147 196.373 41.28 285.813-30.88 52 3.68 156.587 68.853 130.88 80.16-31.787-69.44-193.333 30.988-213.547 104.852-21.012 147.678 181.973 82.667 247.893-93.973 95.307-273.442 2.187-251.362-134.24 5.333-33.333 39.84-43.467 13.76-89.493-60.107 13.333-78.080 60.747-75.733 123.948 3.68 103.467 92.96 175.947 182.453 185.92 113.227 12.587 219.467-41.547 234.187-148.107 16.48-120.215-51.147-250.295-172.16-240.908z" />
<glyph unicode="&#xe904;" glyph-name="social-circle-tripadvisor" d="M702.843 421.451c0-12.039-9.76-21.799-21.799-21.799s-21.799 9.76-21.799 21.799c0 12.039 9.76 21.799 21.799 21.799s21.799-9.76 21.799-21.799zM513.367 605.893c-49.33 0-94.073-6.852-134.427-20.432 76.574-15.476 134.427-83.252 134.427-164.316 0 81.067 57.851 148.841 134.425 164.316-40.354 13.582-85.097 20.432-134.425 20.432zM367.486 421.451c0-12.039-9.76-21.799-21.799-21.799s-21.799 9.76-21.799 21.799c0 12.039 9.76 21.799 21.799 21.799s21.799-9.76 21.799-21.799zM345.687 535.168c-62.862 0-114.016-51.156-114.016-114.021 0-62.862 51.152-114.020 114.016-114.020s114.018 51.156 114.018 114.020c0 62.866-51.152 114.021-114.018 114.021zM345.687 349.045c-39.74 0-72.096 32.341-72.096 72.101s32.354 72.103 72.096 72.103c39.742 0 72.1-32.343 72.1-72.103s-32.356-72.101-72.1-72.101zM512 960c-282.775 0-512-229.227-512-512s229.225-512 512-512c282.773 0 512 229.227 512 512s-229.227 512-512 512zM848.718 421.147c0-92.452-75.225-167.676-167.675-167.676-44.491 0-84.74 17.717-114.788 46.101l-52.889-79.333-52.892 79.333c-30.044-28.384-70.295-46.101-114.786-46.101-92.45 0-167.675 75.225-167.675 167.676 0 37.285 12.651 71.422 33.305 99.296-5.568 23.449-18.953 54.284-33.305 68.38h94.859c65.71 44.743 146.176 67.372 240.494 67.372s174.782-22.629 240.494-67.372h94.857c-14.352-14.096-27.739-44.932-33.305-68.38 20.654-27.876 33.305-62.012 33.305-99.296zM681.044 535.168c-62.862 0-114.018-51.156-114.018-114.021 0-62.862 51.154-114.020 114.018-114.020s114.016 51.156 114.016 114.020c0 62.866-51.154 114.021-114.016 114.021zM681.044 349.045c-39.742 0-72.1 32.341-72.1 72.101s32.356 72.103 72.1 72.103c39.74 0 72.096-32.343 72.096-72.103s-32.357-72.101-72.096-72.101z" />
<glyph unicode="&#xe905;" glyph-name="social-circle-twitter" d="M512 960c-282.773 0-512-229.227-512-512s229.227-512 512-512c282.773 0 512 229.227 512 512s-229.227 512-512 512zM720.267 540.587c0.212-4.373 0.265-8.747 0.265-13.013 0-133.333-101.387-286.987-286.88-286.987-56.96 0-109.973 16.64-154.56 45.333 7.84-0.96 15.893-1.333 24.053-1.333 47.253 0 90.72 16.053 125.227 43.147-44.107 0.853-81.333 29.973-94.187 69.973 6.133-1.12 12.427-1.76 18.933-1.76 9.173 0 18.133 1.227 26.56 3.52-46.133 9.28-80.907 50.027-80.907 98.88v1.227c13.6-7.52 29.173-12.107 45.707-12.64-27.093 18.133-44.853 48.96-44.853 84 0 18.453 4.96 35.84 13.653 50.72 49.76-61.013 124-101.12 207.84-105.44-1.76 7.413-2.613 15.093-2.613 23.040 0 55.627 45.12 100.853 100.852 100.853 28.96 0 55.202-12.267 73.6-31.893 22.987 4.587 44.533 12.907 64 24.48-7.518-23.52-23.467-43.307-44.32-55.84 20.425 2.507 39.838 7.893 57.92 15.947-13.49-20.213-30.61-38.027-50.29-52.213z" />
<glyph unicode="&#xe906;" glyph-name="social-circle-youtube" d="M597.493 456.907l-119.787 55.893c-10.453 4.853-19.040-0.587-19.040-12.16v-105.28c0-11.573 8.587-17.012 19.040-12.16l119.733 55.893c10.507 4.907 10.507 12.907 0.053 17.813zM512 960c-282.773 0-512-229.227-512-512s229.227-512 512-512c282.773 0 512 229.227 512 512s-229.227 512-512 512zM512 240c-262.080 0-266.667 23.627-266.667 208s4.587 208 266.667 208 266.667-23.627 266.667-208-4.587-208-266.667-208z" />
<glyph unicode="&#xe907;" glyph-name="location" horiz-adv-x="640" d="M320 960c-176.992 0-320-143.008-320-320s160-416 320-704c160 288 320 527.008 320 704s-143.008 320-320 320zM320 512c-71.008 0-128 56.992-128 128s56.992 128 128 128 128-56.992 128-128-56.992-128-128-128z" />
<glyph unicode="&#xe908;" glyph-name="star" d="M512 893.44l122.272-344.16h328.288l-267.872-202.144 95.808-354.72-278.464 212.672-278.432-212.672 95.744 354.72-267.936 202.144h328.288l122.304 344.16z" />
<glyph unicode="&#xe909;" glyph-name="filter-menu" horiz-adv-x="1707" d="M1655.467 533.333h-290.133v290.133c0 51.2-34.133 51.2-85.333 51.2s-85.333 0-85.333-51.2v-290.133h-290.133c-51.2 0-51.2-34.133-51.2-85.333s0-85.333 51.2-85.333h290.133v-290.133c0-51.2 34.133-51.2 85.333-51.2s85.333 0 85.333 51.2v290.133h290.133c51.2 0 51.2 34.133 51.2 85.333s0 85.333-51.2 85.333zM631.467 533.333h-580.267c-51.2 0-51.2-34.133-51.2-85.333s0-85.333 51.2-85.333h580.267c51.2 0 51.2 34.133 51.2 85.333s0 85.333-51.2 85.333zM631.467 106.667h-580.267c-51.2 0-51.2-34.133-51.2-85.333s0-85.333 51.2-85.333h580.267c51.2 0 51.2 34.133 51.2 85.333s0 85.333-51.2 85.333zM631.467 960h-580.267c-51.2 0-51.2-34.133-51.2-85.333s0-85.333 51.2-85.333h580.267c51.2 0 51.2 34.133 51.2 85.333s0 85.333-51.2 85.333z" />
<glyph unicode="&#xe90a;" glyph-name="close" horiz-adv-x="926" d="M890.914-29.371c-46.175-46.175-121.003-46.175-167.081 0l-261.010 298.327-261.008-298.225c-46.175-46.175-121.003-46.175-167.081 0-46.178 46.175-46.178 121.003 0 167.081l271.542 310.137-271.642 310.336c-46.178 46.175-46.178 120.906 0 167.081 46.175 46.175 120.903 46.175 167.081 0l261.107-298.422 261.008 298.422c46.175 46.175 120.906 46.175 167.081 0s46.175-121.003 0-167.081l-271.542-310.333 271.545-310.14c46.175-46.178 46.175-121.005 0-167.183z" />
<glyph unicode="&#xe90b;" glyph-name="share" horiz-adv-x="1313" d="M984.678 67.29h-853.387v590.807h170.349c0 0 45.231 58.817 142.45 131.29h-378.444c-36.302 0-65.645-29.476-65.645-65.645v-722.097c0-36.302 29.343-65.645 65.645-65.645h984.678c36.302 0 65.647 29.343 65.647 65.647v245.904l-131.292-107.985v-72.276zM877.086 523.524v-233.105l435.818 341.42-435.818 328.161v-205.536c-529.166 0-529.166-523.061-529.166-523.061 149.802 246.038 241.969 292.121 529.166 292.121z" />
<glyph unicode="&#xe90c;" glyph-name="video-play" d="M511.99 960c-282.764 0-511.99-229.226-511.99-511.99s229.226-511.99 511.99-511.99 511.99 229.226 511.99 511.99-229.226 511.99-511.99 511.99zM408.078 280.17v335.681l310.353-167.84-310.353-167.84z" />
<glyph unicode="&#xe90d;" glyph-name="logo-meetings" horiz-adv-x="1351" d="M1199.248 476.61c-43.614-52.906-88.207-88.184-163.94-88.184-101.638 0-173.243 85.059-173.243 193.972v2.11c0 105.776 71.617 191.885 173.243 191.885 69.519 0 117.236-33.18 158.717-85.071l151.465 117.236c-64.307 89.21-159.731 151.442-308.095 151.442-176.403 0-316.058-106.767-364.464-258.233-46.004 146.989-184.144 243.718-392.863 243.718h-280.069v-726.199h275.953c208.545 0 347.757 99.026 395.556 245.49 47.403-155.394 189.18-260.005 357.608-260.005 160.78 0 253.091 69.519 321.572 163.928l-151.442 107.91zM483.414 581.348c0-117.213-79.86-183.607-200.209-183.607h-81.947v369.325h81.947c120.349 0 200.209-67.444 200.209-183.607v-2.11zM710.029 554.709l23.002-67.828-58.467 41.399-57.394-42.833 21.218 68.4-58.42 41.317 71.617 0.944 21.265 68.376 23.002-67.852 71.606 0.909-57.429-42.833zM17.919 131.522c0.28 1.935 1.387 1.667 2.507 0.268l90.469-101.568 89.081 101.568c1.119 1.387 2.215 1.667 2.507-0.268l11.099-190.661h-49.688l-4.442 80.478-47.17-54.666c-0.828-0.828-1.679-0.828-2.507 0l-49.117 54.946-4.442-80.757h-49.396l11.099 190.661zM239.626 129.575h132.369v-42.46h-81.865v-43.859h68.26v-40.233h-68.26v-19.691h85.747v-42.471h-136.251v188.714zM398.599 129.575h132.369v-42.46h-81.853v-43.859h68.26v-40.233h-68.26v-19.691h85.747v-42.471h-136.263v188.714zM597.561 87.116h-49.944v42.46h150.404v-42.46h-49.944v-146.254h-50.516v146.254zM720.183 129.575h50.516v-188.714h-50.516v188.714zM850.337 34.933v-94.071h-47.461v191.197c0 1.667 0.839 3.054 3.894 0.56l118.496-97.685v94.643h47.45v-191.488c0-2.215-0.828-3.054-3.882-0.548l-118.496 97.394zM1133.367 4.411h-37.47v38.846h82.425v-78.81c-17.488-14.433-40.245-26.080-82.145-26.080-55.505 0-101.568 39.953-101.568 96.858 0 56.881 46.062 96.566 100.448 96.566 33.296 0 59.399-12.486 75.768-33.588l-35.243-30.51c-9.443 12.206-22.757 20.251-41.62 20.251-30.813 0-47.741-23.037-47.741-52.719s17.219-54.398 50.516-54.398c18.304 0 28.575 3.614 36.631 7.496v16.089zM1189.397-26.938l36.631 27.455c9.163-11.379 20.542-20.53 39.417-20.53 14.981 0 23.865 4.442 23.865 14.981 0 8.044-6.097 11.926-18.595 16.1l-22.198 7.496c-27.467 9.163-46.902 25.812-46.902 56.893 0 37.178 30.813 56.333 64.377 56.333 33.296 0 51.623-11.926 62.722-24.984l-28.866-30.242c-7.764 8.033-16.1 13.594-31.081 13.594-12.206 0-18.315-5.561-18.315-13.046 0-7.217 4.162-10.819 13.326-13.862l24.984-8.336c37.738-12.486 50.504-30.522 50.504-57.161 0-34.695-21.638-59.667-71.594-59.667-42.483 0-66.616 19.423-78.274 34.975z" />
<glyph unicode="&#xe90e;" glyph-name="social-youtube" horiz-adv-x="1330" d="M664.936 960c-653.509 0-664.936-58.108-664.936-512s11.427-512 664.936-512c653.49 0 664.936 58.108 664.936 512s-11.445 512-664.936 512zM878.025 425.804l-298.554-139.37c-26.137-12.121-47.545 1.464-47.545 30.302v262.529c0 28.782 21.408 42.423 47.545 30.321l298.554-139.37c26.155-12.233 26.155-32.178 0-44.412z" />
<glyph unicode="&#xe90f;" glyph-name="social-instagram" d="M910.232 960h-796.446c-62.571 0-113.785-51.215-113.785-113.785v-796.446c0-62.64 51.215-113.785 113.785-113.785h796.446c62.588 0 113.785 51.146 113.785 113.803v796.429c-0.017 62.571-51.197 113.785-113.785 113.785zM511.095 133.811c174.030 0 315.060 141.116 315.060 315.094 0 19.214-2.447 37.756-5.859 55.971h89.936v-410.493c0-21.73-17.611-39.255-39.428-39.255h-717.591c-21.782 0-39.428 17.525-39.428 39.238v410.51h88.126c-3.481-18.197-5.911-36.739-5.911-55.971 0-174.013 141.133-315.094 315.094-315.094zM314.198 448.905c0 108.771 88.178 196.897 196.949 196.897 108.719 0 196.949-88.126 196.949-196.897 0-108.754-88.23-196.966-196.949-196.966-108.805 0.017-196.949 88.195-196.949 196.966zM870.804 675.545h-91.866c-21.73 0-39.359 17.749-39.359 39.376v91.986c0 21.73 17.629 39.324 39.307 39.324h91.883c21.851 0 39.462-17.594 39.462-39.324v-91.935c0-21.678-17.629-39.428-39.428-39.428z" />
<glyph unicode="&#xe910;" glyph-name="social-twitter" horiz-adv-x="1260" d="M1131.093 705.1c0.548-11.084 0.76-22.327 0.76-33.411 0-341.769-260.026-735.689-735.53-735.689-146.074 0-281.894 42.816-396.324 116.215 20.277-2.387 40.819-3.624 61.626-3.624 121.218 0 232.643 41.367 321.068 110.594-113.069 2.139-208.618 76.793-241.5 179.503 15.751-2.935 31.997-4.526 48.632-4.526 23.618 0 46.493 3.094 68.149 8.98-118.266 23.848-207.363 128.272-207.363 253.609 0 1.096 0 2.139 0 3.217 34.861-19.375 74.778-31.025 117.117-32.404-69.369 46.44-115.049 125.461-115.049 215.248 0 47.342 12.746 91.767 35.056 129.987 127.441-156.486 318.063-259.354 532.887-270.173-4.384 18.969-6.629 38.626-6.629 58.956-0.018 142.75 115.65 258.417 258.47 258.417 74.371 0 141.548-31.308 188.731-81.566 58.832 11.65 114.165 33.146 164.176 62.739-19.34-60.353-60.353-111.018-113.705-142.998 52.309 6.293 102.038 20.065 148.46 40.677-34.631-51.92-78.473-97.388-129.032-133.752z" />
<glyph unicode="&#xe911;" glyph-name="social-facebook" d="M910.226 960h-796.452c-62.575 0-113.774-51.199-113.774-113.774v-796.452c0-62.627 51.199-113.774 113.774-113.774h398.217v398.217h-113.774v140.806h113.774v116.622c0 123.113 68.944 209.578 214.239 209.578l102.571-0.104v-148.194h-68.099c-56.533 0-78.042-42.447-78.042-81.805v-96.149h146.106l-32.332-140.754h-113.774v-398.2h227.565c62.575 0 113.791 51.147 113.791 113.774v796.435c0 62.575-51.216 113.774-113.791 113.774z" />
<glyph unicode="&#xe912;" glyph-name="menu-neighborhoods--map" horiz-adv-x="862" d="M321.145 960c8.869-1.775 541.056-541.056 541.056-541.056l-468.325-470.099c0 0-20.439-25.498-40.299-4.645s-0.993 34.754 4.965 43.691 0.993 20.852 1.986 30.782 3.972 26.81 15.888 42.698 4.965 25.817 4.965 38.726 4.965 26.81 10.923 35.747 0.993 21.845 0.993 29.789 3.972 4.965 7.944 14.895 10.923 23.831 12.909 32.768 0 14.895 16.881 24.824 35.747 25.817 36.74 35.747 11.916 23.831 33.761 18.866 26.81 0 26.81 4.965 22.838 21.845 44.684 29.789 32.768 18.866 35.747 28.796 16.881 14.895 19.859 17.873 11.916 15.888 14.895 26.81 8.937 21.845 8.937 27.803-5.958 29.789-5.958 29.789 7.944 8.937 12.909 19.859 5.958 15.888 5.958 15.888 13.902 17.873 14.895 22.838-3.972 12.909 11.916 13.902 22.838 5.461 22.838 5.461-13.902 2.482-22.342 2.482-17.873-0.993-18.866-14.895-13.405-22.838-13.405-22.838-8.937 4.965-15.888-3.972-16.881-22.838-16.881-22.838-4.965 0.496-2.979-11.419 0.496-20.356 0.496-20.356 15.888 2.979 12.412-12.909-5.461-23.335-7.447-32.768-4.468-11.419-8.937-13.902-17.873-11.419-19.859-18.866-3.475-15.391-13.902-15.888-13.902-5.958-18.866-10.923-13.405-4.468-23.335-7.944-21.349-24.328-29.789-21.349-18.37 11.419-30.286 7.447-27.803-9.433-34.754-22.342-15.391-37.733-31.775-39.222-13.902 13.405-8.937 27.307 4.965 23.831 0.496 29.789-13.405 16.384-15.391 27.803-18.866 20.852-26.81 24.824-25.321 5.461-10.426-8.937 21.845-13.902 22.342-22.342 13.902-12.909 13.405-32.272 2.482-36.74 3.972-53.124-3.972-26.81-10.426-5.958-11.916 23.831-14.398 39.719-17.377 36.74-25.817 43.691-14.227 26.81-25.484 29.293-29.13 13.902-39.060 36.74-15.391 18.37-23.831 31.279-5.461 15.888-2.979 23.831-11.419 18.866-17.873 22.342-21.349 13.405-32.768 9.93-11.916 1.986-22.838 4.965-21.349-3.972-29.293-0.496-2.979 6.951-21.845 11.419-23.831 11.916-30.782 17.873-18.37 7.447-22.838 19.859-3.475 29.789-16.881 35.747-15.391 15.391-26.314 26.314-19.363 13.405-20.356 25.321 0 15.391-4.468 19.363-16.384 6.454-2.482 17.377 314.611 304.336 314.611 304.336z" />
<glyph unicode="&#xe913;" glyph-name="menu-neighborhoods--sample" horiz-adv-x="862" d="M422.679 618.998l64.596-64.596-47.745-47.745-64.596 64.596 47.745 47.745z" />
<glyph unicode="&#xe914;" glyph-name="menu-neighborhoods--sample2" horiz-adv-x="862" d="M422.675 479.982l64.595-64.595-47.745-47.745-64.595 64.595 47.745 47.745z" />
<glyph unicode="&#xe915;" glyph-name="menu" horiz-adv-x="1463" d="M73.143 960h1316.571c20.114 0 37.449-7.168 51.712-21.431s21.431-31.525 21.431-51.712-7.168-37.449-21.431-51.712-31.598-21.431-51.712-21.431h-1316.571c-20.187 0-37.449 7.168-51.712 21.431s-21.431 31.525-21.431 51.712 7.168 37.449 21.431 51.712 31.525 21.431 51.712 21.431zM73.143 82.286h1316.571c20.114 0 37.449-7.168 51.712-21.431s21.431-31.598 21.431-51.712-7.168-37.449-21.431-51.712-31.598-21.431-51.712-21.431h-1316.571c-20.187 0-37.449 7.168-51.712 21.431s-21.431 31.598-21.431 51.712 7.168 37.449 21.431 51.712 31.525 21.431 51.712 21.431zM73.143 521.143h1316.571c20.114 0 37.449-7.168 51.712-21.431s21.431-31.525 21.431-51.712-7.168-37.449-21.431-51.712-31.598-21.431-51.712-21.431h-1316.571c-20.187 0-37.449 7.168-51.712 21.431s-21.431 31.525-21.431 51.712 7.168 37.449 21.431 51.712 31.525 21.431 51.712 21.431z" />
<glyph unicode="&#xe916;" glyph-name="arrow-right" horiz-adv-x="841" d="M841.143 402.286q0-30.857-21.143-52l-372-372q-22.286-21.143-52-21.143-29.143 0-51.429 21.143l-42.857 42.857q-21.714 21.714-21.714 52t21.714 52l167.429 167.429h-402.286q-29.714 0-48.286 21.429t-18.571 51.714v73.143q0 30.286 18.571 51.714t48.286 21.429h402.286l-167.429 168q-21.714 20.571-21.714 51.429t21.714 51.429l42.857 42.857q21.714 21.714 51.429 21.714 30.286 0 52-21.714l372-372q21.143-20 21.143-51.429z" />
<glyph unicode="&#xe917;" glyph-name="caret-left" horiz-adv-x="947" d="M946.72 960v-1024l-946.752 512 946.752 512z" />
<glyph unicode="&#xe918;" glyph-name="caret-right" horiz-adv-x="947" d="M0-64v1024l946.72-512-946.72-512z" />
<glyph unicode="&#xe919;" glyph-name="caret-down" d="M0 921.344h1024l-512-946.72-512 946.72z" />
<glyph unicode="&#xe91a;" glyph-name="logo-groups" horiz-adv-x="1300" d="M1154.454 494.67c-41.984-50.918-84.923-84.889-157.815-84.889-97.851 0-166.771 81.893-166.771 186.736v2.043c0 101.813 68.93 184.705 166.771 184.705 66.91 0 112.845-31.94 152.776-81.893l145.806 112.856c-61.916 85.865-153.763 145.773-296.584 145.773-169.812 0-304.25-102.778-350.835-248.585-44.296 141.497-177.275 234.612-378.185 234.612h-269.616v-699.078h265.643c200.753 0 334.764 95.326 380.778 236.318 45.632-149.577 182.123-250.279 344.248-250.279 154.785 0 243.635 66.91 309.558 157.804l-145.773 103.878zM465.353 595.495c0-112.823-76.876-176.736-192.729-176.736h-78.896v355.515h78.896c115.853 0 192.729-64.924 192.729-176.748v-2.031zM683.501 569.851l22.143-65.294-56.271 39.852-55.261-41.232 20.425 65.844-56.226 39.785 68.942 0.898 20.47 65.822 22.143-65.317 68.93 0.875-55.295-41.232zM166.849 13.796h-43.948v45.576h96.684v-92.442c-20.515-16.946-47.203-30.605-96.359-30.605-65.103 0-119.141 46.866-119.141 113.608 0 66.719 54.038 113.283 117.839 113.283 39.055 0 69.671-14.646 88.873-39.392l-41.345-35.801c-11.066 14.32-26.688 23.759-48.83 23.759-36.137 0-55.99-27.013-55.99-61.849s20.179-63.813 59.245-63.813c21.492 0 33.534 4.231 42.972 8.787v18.888zM424.603-60.757h-64.127l-30.919 50.783h-22.143v-50.783h-59.245v221.369h83.991c59.571 0 93.104-37.753 93.104-86.909 0-31.906-14.006-57.292-40.043-71.624l39.381-62.836zM329.22 37.241c26.688 0 36.463 14.982 36.463 36.463s-9.775 36.777-36.463 36.777h-21.806v-73.24h21.806zM444.422 49.945c0 66.719 55.014 113.283 118.816 113.283s118.816-46.552 118.816-113.283c0-66.742-55.014-113.608-118.816-113.608-63.813 0-118.816 46.855-118.816 113.608zM621.506 49.945c0 34.836-21.166 61.849-58.269 61.849s-58.269-27.013-58.269-61.849 21.166-62.185 58.269-62.185 58.269 27.35 58.269 62.185zM706.407 24.862v135.751h59.245v-135.089c0-25.072 11.728-39.392 36.777-39.392 25.072 0 36.788 14.309 36.788 39.392v135.089h59.245v-135.751c0-59.582-40.694-88.862-96.045-88.862-55.317 0-96.011 29.291-96.011 88.862zM992.823-60.757h-59.245v221.369h83.98c59.571 0 93.104-37.753 93.104-86.909 0-49.167-33.534-86.595-93.104-86.595h-24.735v-47.865zM1014.64 37.241c26.688 0 36.452 14.982 36.452 36.463s-9.764 36.777-36.452 36.777h-21.806v-73.24h21.806zM1115.825-22.981l42.972 32.221c10.74-13.333 24.084-24.084 46.227-24.084 17.575 0 27.99 5.219 27.99 17.575 0 9.45-7.171 14.006-21.806 18.899l-26.037 8.787c-32.232 10.74-55.014 30.268-55.014 66.719 0 43.623 36.137 66.091 75.518 66.091 39.055 0 60.558-13.995 73.577-29.291l-33.87-35.475c-9.113 9.427-18.877 15.948-36.452 15.948-14.32 0-21.48-6.52-21.48-15.308 0-8.462 4.882-12.693 15.622-16.262l29.291-9.775c44.274-14.646 59.245-35.801 59.245-67.056 0-40.705-25.386-69.985-83.98-69.985-49.807-0.022-78.133 22.76-91.802 40.997z" />
<glyph unicode="&#xe91b;" glyph-name="logo-members" horiz-adv-x="1341" d="M1190.45 480.161c-43.305-52.517-87.571-87.524-162.736-87.524-100.891 0-171.959 84.435-171.959 192.547v2.095c0 104.999 71.080 190.475 171.959 190.475 69.008 0 116.375-32.936 157.551-84.446l150.353 116.375c-63.847 88.543-158.569 150.318-305.844 150.318-175.107 0-313.736-105.983-361.775-256.336-45.666 145.909-182.803 241.928-389.977 241.928h-278.023v-720.864h273.926c207.013 0 345.214 98.299 392.651 243.675 47.055-154.23 187.79-258.083 354.981-258.083 159.599 0 251.232 68.997 319.21 162.724l-150.318 107.117zM479.863 584.13c0-116.352-79.273-182.259-198.738-182.259h-81.356v366.612h81.356c119.465 0 198.738-66.948 198.738-182.259v-2.095zM704.813 557.686l22.833-67.33-58.026 41.095-56.972-42.518 21.062 67.897-57.991 41.025 71.091 0.926 21.109 67.874 22.821-67.353 71.091 0.903-57.019-42.518zM18.898 137.62c0.289 2.014 1.447 1.724 2.604 0.278l94.294-105.856 92.848 105.856c1.157 1.447 2.315 1.724 2.604-0.278l11.573-198.727h-51.776l-4.629 83.879-49.172-56.984c-0.868-0.856-1.736-0.856-2.604 0l-51.198 57.285-4.629-84.168h-51.475l11.561 198.715zM252.088 135.583h137.97v-44.254h-85.337v-45.701h71.149v-41.928h-71.149v-20.542h89.376v-44.254h-142.009v196.678zM427.704 137.62c0.289 2.014 1.447 1.724 2.604 0.278l94.294-105.856 92.848 105.856c1.157 1.447 2.315 1.724 2.604-0.278l11.573-198.727h-51.776l-4.629 83.879-49.172-56.984c-0.868-0.856-1.736-0.856-2.604 0l-51.198 57.273-4.629-84.168h-51.487l11.573 198.727zM660.895 135.583h80.419c39.035 0 64.495-17.926 64.495-48.004 0-21.988-9.837-32.103-22.567-38.178 21.41-6.076 39.637-21.41 39.637-51.487 0-37.611-29.21-59.021-78.104-59.021h-83.879v196.69zM737.263 62.987c11.561 0 16.769 5.786 16.769 15.045s-4.629 15.901-16.202 15.901h-26.027v-30.945h25.46zM743.616-19.445c20.252 0 26.617 8.68 26.617 22.266 0 13.61-6.654 21.988-26.617 21.988h-31.813v-44.254h31.813zM845.757 135.583h137.97v-44.254h-85.326v-45.701h71.149v-41.928h-71.149v-20.542h89.388v-44.254h-142.032v196.678zM1170.337-61.107h-56.984l-27.474 45.122h-19.674v-45.122h-52.644v196.69h74.632c52.934 0 82.722-33.538 82.722-77.236 0-28.342-12.441-50.897-35.575-63.627l34.996-55.827zM1085.602 25.966c23.712 0 32.392 13.309 32.392 32.392 0 19.095-8.68 32.693-32.392 32.693h-19.396v-65.085h19.396zM1179.931-27.534l38.19 28.631c9.536-11.85 21.398-21.41 41.072-21.41 15.623 0 24.858 4.618 24.858 15.635 0 8.39-6.353 12.429-19.373 16.769l-23.145 7.8c-28.642 9.559-48.883 26.907-48.883 59.31 0 38.757 32.103 58.708 67.099 58.708 34.718 0 53.802-12.441 65.374-26.027l-30.089-31.536c-8.101 8.39-16.78 14.177-32.404 14.177-12.73 0-19.072-5.786-19.072-13.598 0-7.511 4.34-11.283 13.876-14.454l26.039-8.68c39.324-13.019 52.644-31.825 52.644-59.588 0-36.153-22.567-62.192-74.632-62.192-44.242-0.012-69.402 20.241-81.553 36.454z" />
<glyph unicode="&#xe91c;" glyph-name="social-circle-facebook" d="M512 939.52c-271.462 0-491.52-220.058-491.52-491.52s220.058-491.52 491.52-491.52 491.52 220.058 491.52 491.52-220.058 491.52-491.52 491.52zM628.429 599.859h-73.882c-8.755 0-18.483-11.52-18.483-26.829v-53.35h92.416l-13.978-76.083h-78.438v-228.403h-87.194v228.403h-79.104v76.083h79.104v44.749c0 64.205 44.544 116.378 105.677 116.378h73.882v-80.947z" />
<glyph unicode="&#xe91d;" glyph-name="social-tripadvisor" horiz-adv-x="1317" d="M372.005 390.29q0-22.272-15.726-37.998t-37.413-15.726q-22.272 0-37.998 15.726t-15.726 37.998q0 21.723 15.726 37.413t37.998 15.726q21.723 0 37.413-15.726t15.726-37.413zM1031.424 390.839q0-22.272-15.726-37.998t-37.998-15.726-37.998 15.726-15.726 37.998 15.726 37.705 37.998 15.433 37.998-15.433 15.726-37.705zM437.138 390.29q0 45.129-32.293 77.714t-78.007 32.585-78.007-32.293-32.293-78.007 32.293-78.007 78.007-32.293 78.007 32.293 32.293 78.007zM1096.009 390.839q0 45.714-32.293 78.007t-78.007 32.293q-45.129 0-77.714-32.293t-32.585-78.007 32.293-78.007 78.007-32.293 78.007 32.293 32.293 78.007zM485.705 390.29q0-66.304-46.555-112.859t-112.274-46.555q-66.304 0-112.859 46.848t-46.555 112.567 46.848 112.274 112.567 46.555 112.274-46.555 46.555-112.274zM1145.161 390.839q0-65.719-46.555-112.274t-112.859-46.555q-65.719 0-112.274 46.555t-46.555 112.274 46.555 112.274 112.274 46.555q66.304 0 112.859-46.555t46.555-112.274zM594.286 389.157q0 109.129-77.422 186.587t-186.587 77.422q-71.424 0-131.986-35.438t-96-96.293-35.438-132.279 35.438-132.279 96-96.293 131.986-35.438q109.129 0 186.587 77.422t77.422 186.587zM976.018 716.581q-145.152 63.415-317.696 63.415-182.272 0-327.424-62.866 66.853 0 127.415-26.002t104.302-69.998 69.705-104.558 26.002-127.415q0 65.719 24.869 125.44t67.438 103.131 101.413 70.29 124.014 28.562zM1249.719 389.157q0 109.129-77.129 186.587t-186.295 77.422-186.587-77.422-77.422-186.587 77.422-186.587 186.587-77.422 186.295 77.422 77.129 186.587zM1097.728 712.558h218.843q-25.161-29.147-42.862-65.426t-22.857-65.426q62.866-86.272 62.866-192.585 0-89.161-43.995-164.571t-119.442-119.15-163.986-43.703q-75.995 0-142.299 32t-112.018 88.576q-26.843-32-73.728-102.29-6.29 12.581-30.574 47.141t-42.569 55.698q-45.714-56.576-112.274-88.869t-142.555-32.293q-88.576 0-163.986 43.703t-119.442 119.15-43.995 164.571q0 106.277 62.866 192.585-5.157 29.147-22.857 65.426t-42.862 65.426h208.567q85.138 57.161 202.862 89.417t246.857 32.293q128 0 240.567-32t198.839-89.71z" />
<glyph unicode="&#xe91e;" glyph-name="social-circle-instagram" d="M665.6 448c0-84.838-68.762-153.6-153.6-153.6s-153.6 68.762-153.6 153.6c0 8.755 0.922 17.306 2.509 25.6h-53.709v-204.646c0-14.234 11.52-25.754 25.754-25.754h358.144c14.182 0 25.702 11.52 25.702 25.754v204.646h-53.709c1.587-8.294 2.509-16.845 2.509-25.6zM512 345.6c56.525 0 102.4 45.875 102.4 102.4s-45.875 102.4-102.4 102.4-102.4-45.875-102.4-102.4 45.875-102.4 102.4-102.4zM634.88 555.52h61.389c8.499 0 15.411 6.912 15.411 15.36v61.389c0 8.499-6.912 15.411-15.411 15.411h-61.389c-8.499 0-15.411-6.912-15.411-15.411v-61.389c0.051-8.448 6.963-15.36 15.411-15.36zM512 939.52c-271.462 0-491.52-220.058-491.52-491.52s220.058-491.52 491.52-491.52c271.462 0 491.52 220.058 491.52 491.52s-220.058 491.52-491.52 491.52zM768 248.883c0-31.283-25.6-56.883-56.883-56.883h-398.234c-31.283 0-56.883 25.6-56.883 56.883v398.234c0 31.283 25.6 56.883 56.883 56.883h398.234c31.283 0 56.883-25.6 56.883-56.883v-398.234z" />
<glyph unicode="&#xe91f;" glyph-name="social-pinterest" d="M441.19 282.778c-26.931-141.005-59.75-276.173-157.082-346.778-30.003 213.094 44.083 373.094 78.541 542.976-58.726 98.816 7.066 297.574 130.816 248.576 152.32-60.211-131.891-367.206 58.88-405.606 199.219-39.987 280.525 345.6 156.979 470.989-178.432 181.146-519.475 4.25-477.491-255.078 10.189-63.386 75.674-82.586 26.163-170.086-114.227 25.293-148.326 115.405-143.923 235.52 7.066 196.608 176.589 334.182 346.675 353.28 215.091 24.115 416.973-79.002 444.877-281.293 31.386-228.403-97.075-475.802-327.117-457.984-62.362 4.864-88.474 35.789-137.318 65.485z" />
</font>
</defs>
</svg>
